<?xml version="1.0" encoding="utf-8"?>
<!-- Generator: Adobe Illustrator 26.3.1, SVG Export Plug-In . SVG Version: 6.00 Build 0)  -->
<svg version="1.1" id="Layer_1" xmlns="http://www.w3.org/2000/svg" xmlns:xlink="http://www.w3.org/1999/xlink" x="0px" y="0px"
	 viewBox="0 0 448 512" style="enable-background:new 0 0 448 512;" xml:space="preserve">
<style type="text/css">
	.st0{fill:#FFFFFF;}
</style>
<path class="st0" d="M160,24c0-13.2,10.7-24,24-24h80c13.3,0,24,10.8,24,24s-10.7,24-24,24h-16v48h40c17.7,0,32,14.3,32,32h93.2
	c21.5,0,36.9,20.7,30.7,41.2l-41.2,137.3c7.9,3.9,13.3,12.1,13.3,21.5c0,13.3-10.7,24-24,24h-24v136c0,13.3-10.7,24-24,24
	s-24-10.7-24-24V352H128v136c0,13.3-10.7,24-24,24c-13.2,0-24-10.7-24-24V352H56c-13.2,0-24-10.7-24-24c0-9.4,5.4-17.6,13.3-21.5
	L4.1,169.2c-6.2-20.5,9.2-41.2,30.6-41.2H128c0-17.7,14.3-32,32-32h40V48h-16C170.7,48,160,37.2,160,24L160,24z M128,304V176H56.3
	l38.4,128H128z M176,304h96V176h-96V304z M320,176v128h33.3l38.4-128H320z"/>
</svg>
