<?xml version="1.0" encoding="utf-8"?>
<!-- Generator: Adobe Illustrator 25.3.1, SVG Export Plug-In . SVG Version: 6.00 Build 0)  -->
<svg version="1.1" id="ee693e3f-f1dd-423f-8d69-5f6c61e6de89"
	 xmlns="http://www.w3.org/2000/svg" xmlns:xlink="http://www.w3.org/1999/xlink" x="0px" y="0px" viewBox="0 0 804.9 384.7"
	 style="enable-background:new 0 0 804.9 384.7;" xml:space="preserve">
<style type="text/css">
	.st0{fill:#3F3D56;}
	.st1{opacity:0.1;enable-background:new    ;}
	.st2{fill:#FFB9B9;}
	.st3{fill:#1A475F;}
	.st4{fill:#2F2E41;}
	.st5{fill:#011328;}
	.st6{fill:none;stroke:#011328;stroke-width:6;stroke-miterlimit:10;}
	.st7{fill:#D1D9EC;}
	.st8{fill:#484B4C;}
	.st9{fill:#DFE6F5;}
	.st10{fill:#FFFFFF;}
	.st11{fill:none;stroke:#F2F2F2;stroke-miterlimit:10;}
	.st12{fill:none;stroke:#F2F2F2;stroke-miterlimit:10;stroke-dasharray:2.4235,2.4235;}
	.st13{fill:none;stroke:#F2F2F2;stroke-miterlimit:10;stroke-dasharray:2.7306,2.7306;}
</style>
<ellipse class="st0" cx="392" cy="671.6" rx="392" ry="49.5"/>
<ellipse class="st1" cx="392" cy="662.3" rx="348" ry="34.7"/>
<rect x="199.8" y="368.6" class="st0" width="20.4" height="310.5"/>
<polygon class="st0" points="381.6,360.5 381.6,368.6 48.6,372.7 48.6,364.6 49,364.3 107.8,325.7 355,325.7 "/>
<path class="st2" d="M322.3,311.4c0,0-73.5,6.1-49,24.5c24.5,18.4,49-12.3,49-12.3V311.4z"/>
<polygon class="st1" points="381.6,360.7 381.6,368.6 48.6,372.7 48.6,364.6 49,364.3 "/>
<path class="st3" d="M432.7,211.3l1.8-6.7c0,0-24.3,43.5-26.3,47.6c-2,4.1-36.8,38.8-40.9,44.9c-2.8,4-6.2,7.4-10.2,10.2h-38.8
	c0,0-8.2,26.6,4.1,28.6s51.1,10.2,59.2,10.2s59.2-47,59.2-47L432.7,211.3z"/>
<polygon class="st0" points="440.8,507.6 428.6,679.2 440.8,679.2 455.1,503.5 "/>
<polygon class="st0" points="590,487.1 577.7,658.7 590,658.7 604.3,483.1 "/>
<polygon class="st0" points="612.4,507.6 600.2,679.2 612.4,679.2 626.7,503.5 "/>
<polygon class="st0" points="422.4,491.2 410.2,662.8 422.4,662.8 436.7,487.1 "/>
<polygon class="st0" points="659.4,272.6 624.7,521.9 418.4,513.7 419.7,490.7 422.4,446.3 581.8,454.4 608.4,272.6 "/>
<path class="st1" d="M659.4,272.6l-34.7,249.2l-206.3-8.2l1.4-23c43.1,1.7,188.6-7.6,188.6-7.6c0-32.6,28.6-160.3,40.2-210.4
	L659.4,272.6z"/>
<path class="st2" d="M297.8,575c0,0-6.1,47-18.4,55.2c-12.3,8.2,51.1,18.4,51.1,18.4l4.1-61.3L297.8,575z"/>
<path class="st2" d="M504.2,595.4c0,0,10.2,12.3,12.3,20.4s32.7,12.3,32.7,12.3l22.5-24.5c0,0-28.6-24.5-36.8-24.5
	S504.2,595.4,504.2,595.4z"/>
<circle class="st2" cx="450" cy="124.5" r="49"/>
<path class="st2" d="M436.7,158.2c0,0,24.5,47,20.4,55.2s53.1-38.8,53.1-38.8s-20.4-32.7-20.4-42.9S436.7,158.2,436.7,158.2z"/>
<path class="st4" d="M459.2,399.3c0,0-157.3-24.5-163.4,32.7c-6.1,57.2-28.6,130.8-30.6,136.9c-2,6.1,67.4,40.9,75.6,28.6
	s22.5-110.3,18.4-118.5s-6.1-18.4,2-16.3s98.1,20.4,116.5,14.3s65.4-87.8,65.4-87.8L459.2,399.3z"/>
<path class="st1" d="M459.2,399.3c0,0-157.3-24.5-163.4,32.7c-6.1,57.2-28.6,130.8-30.6,136.9c-2,6.1,67.4,40.9,75.6,28.6
	s22.5-110.3,18.4-118.5s-6.1-18.4,2-16.3s98.1,20.4,116.5,14.3s65.4-87.8,65.4-87.8L459.2,399.3z"/>
<path class="st4" d="M455.1,387l6.1,51.1c0,0-98.1,36.8-61.3,96s77.6,91.9,77.6,91.9s65.4-36.8,65.4-47s-79.7-67.4-69.5-67.4
	s157.3-8.2,126.7-89.9S455.1,387,455.1,387z"/>
<path class="st4" d="M295.8,632.2c0,0-16.3-18.4-16.3-14.3s-47,28.6-55.2,30.6s-20.4,6.1-4.1,12.3s120.5,8.2,120.5,4.1
	s4.1-42.9-4.1-38.8S297.8,640.4,295.8,632.2z"/>
<path class="st4" d="M536.8,617.9c0,0-22.5-6.1-24.5,0s-4.1,30.6-22.5,38.8s-24.5,20.4,0,22.5s91.9-44.9,91.9-53.1
	s-8.2-32.7-12.3-30.6S555.2,615.8,536.8,617.9z"/>
<rect x="163" y="644.4" class="st0" width="94" height="36.8"/>
<path class="st3" d="M510.3,162.3c0,0-7.6-20.4-21.2-8.2S449,197,449,197s-16.3,6.1-22.5,16.3s-6.1,77.6,6.1,100.1
	s12.3,61.3,16.3,71.5s0,20.4,14.3,20.4s-8.2-16.3,38.8,0s100.1,36.8,104.2,22.5s-6.1-22.5,0-28.6s0-8.2-4.1-22.5
	s-8.2-16.3-10.2-34.7s0-36.8-4.1-44.9s-4.1-20.4-4.1-40.9s-12.3-61.3-34.7-73.5S510.3,162.3,510.3,162.3z"/>
<path class="st4" d="M402.1,70c11.4-11.1,23.4-22.6,38.5-27.4c20.2-6.5,42.8,0.3,60.2,12.5c3.8,2.6,7.4,5.6,9.7,9.6
	c2.1,3.7,2.8,7.9,3.5,12.1c2.3,14.6,4.2,29.4,3.1,44.2s-5.5,29.6-14.6,41.3c-8.1-8.6-14.2-18.8-18.2-29.9c-1-2.9-2-6-4.1-8.4
	s-5.8-3.6-8.4-1.9c-3.6,2.3-3.2,8.6-7,10.6c-1.3,0.6-2.8,0.8-4.2,0.4c-10-1.7-13.5-14-20.1-21.8c-9.6-11.5-23.1-10.8-36.3-14.1
	C389.1,93.3,392.9,79,402.1,70z"/>
<ellipse class="st5" cx="319.2" cy="337.7" rx="42" ry="9.1"/>
<path class="st6" d="M315.7,338.7l-0.8-43.5c-0.2-9.7,0.2-20.7,7.4-27.3c4.6-4.1,11.4-5.9,14.3-11.3c1.6-3,1.6-6.5,1.6-9.8
	l-0.1-59.2"/>
<path class="st5" d="M335.1,169.1h3.5c4.4,0,8,3.6,8,8v21.7c0,4.4-3.6,8-8,8h-3.5c-4.4,0-8-3.6-8-8v-21.7
	C327.1,172.7,330.7,169.1,335.1,169.1z"/>
<path class="st2" d="M392.9,329.1c0,0-67.7-18-73.2-2.5s57.8,29.8,57.8,29.8h26.6L392.9,329.1z"/>
<path class="st3" d="M534.8,195c0,0-30.6,22.5-38.8,55.2s-14.3,67.4-14.3,67.4l-94,12.3c0,0-8.2,32.7,4.1,34.7s104.2,8.2,118.5,0
	s63.3-110.3,61.3-120.5S565.4,197,534.8,195z"/>
<path class="st7" d="M168.6,340.3l33.2,2.7l47.3-3.1l-0.8-0.1l-43.8-4.2c-10-3.7-3.1-25.4-3.1-25.4l-33.6,1.7l-2.7,0.1
	C153.2,339.8,168.6,340.3,168.6,340.3z"/>
<path class="st1" d="M168.6,340.3l33.2,2.7l47.3-3.1l-0.8-0.1l-47.8,1.7l-32.1-3.5c-9.1-2.4-3.9-18.2-0.6-26.2l-2.7,0.1
	C153.2,339.8,168.6,340.3,168.6,340.3z"/>
<path class="st8" d="M113.5,141.9l9.9,144.2v17.4c0.3,4.4,2.4,12,6.8,12l8.1-7H285c2.5,0-6-3.7-6.2-6.2l10.3-5.4l-10.8-105.7
	c-0.3-3.4-2.6-6.3-5.9-7.4l-145.7-50.4c-5-1.7-10-1.1-13.2,1.5C111.5,136.6,113.3,138.3,113.5,141.9z"/>
<path class="st9" d="M120.6,288.6l1.3,19.1c0.3,4.4,4,7.8,8.3,7.7l3.1,0l152.9-0.9c2.4,0,4.3-1.9,4.3-4.3c0-0.1,0-0.3,0-0.4
	l-1.3-12.9L120.6,288.6z"/>
<ellipse class="st10" cx="223.1" cy="304.4" rx="2" ry="4.1"/>
<path class="st7" d="M148.2,345c0,0-41.8-15.8-53.1-4.3c0,0-1.8,3.5,5.7,4.3l30.6,2.5C131.5,347.5,144.1,348.7,148.2,345z"/>
<path class="st9" d="M147.1,340.9c-8.2-3.4-32.9-12-48.7-2.4c0,0,17.5-1.9,27.1,3.6s22.7,2.9,22.7,2.9l0.2-0.3
	c0.7-1.3,0.3-2.9-1-3.6C147.3,341,147.2,341,147.1,340.9z"/>
<path class="st9" d="M110.4,142.9l11.5,164.8c0.3,4.4,4,7.8,8.3,7.7l3.1,0c-2.1-2-3.9-4.3-5.3-6.9c0,0-11.3-165.6-12.1-169.7
	c-0.4-1.5-1.1-2.9-2.3-4.1C111.3,136.8,110.1,139.8,110.4,142.9z"/>
<path class="st1" d="M110.4,142.9l11.5,164.8c0.3,4.4,4,7.8,8.3,7.7l3.1,0c-2.1-2-3.9-4.3-5.3-6.9c0,0-11.3-165.6-12.1-169.7
	c-0.4-1.5-1.1-2.9-2.3-4.1C111.3,136.8,110.1,139.8,110.4,142.9z"/>
<rect x="176.5" y="226.5" class="st11" width="6.4" height="6.4"/>
<line class="st11" x1="193.4" y1="226.5" x2="182.9" y2="229.7"/>
<g>
	<g>
		<line class="st11" x1="174.1" y1="229.7" x2="172.1" y2="229.7"/>
		<line class="st12" x1="169.6" y1="229.7" x2="166" y2="229.7"/>
		<line class="st11" x1="164.8" y1="229.7" x2="162.8" y2="229.7"/>
	</g>
</g>
<rect x="211.4" y="246.6" transform="matrix(-1 -4.489798e-11 4.489798e-11 -1 429.1354 499.5827)" class="st11" width="6.4" height="6.4"/>
<line class="st11" x1="200.8" y1="249.8" x2="211.4" y2="249.8"/>
<g>
	<g>
		<line class="st11" x1="220.2" y1="249.8" x2="222.2" y2="249.8"/>
		<line class="st12" x1="224.6" y1="249.8" x2="228.3" y2="249.8"/>
		<line class="st11" x1="229.5" y1="249.8" x2="231.5" y2="249.8"/>
	</g>
</g>
<rect x="226.3" y="209.7" class="st11" width="6.4" height="6.4"/>
<line class="st11" x1="243.2" y1="209.7" x2="232.6" y2="212.8"/>
<g>
	<g>
		<line class="st11" x1="223.3" y1="216.1" x2="221.4" y2="216.8"/>
		<line class="st13" x1="218.9" y1="217.8" x2="215.1" y2="219.4"/>
		<line class="st11" x1="213.8" y1="219.9" x2="212" y2="220.6"/>
	</g>
</g>
</svg>
