<svg xmlns="http://www.w3.org/2000/svg" viewBox="0 0 922 427"><defs><style>.cls-1{fill:#011328;}.cls-2{fill:#43c6e7;}</style></defs><title>Postive</title><g id="Logo"><path class="cls-1" d="M110.08,267.06a18.71,18.71,0,0,0-3.5-2.84,35.21,35.21,0,0,0-5.37-2.83,39.68,39.68,0,0,0-6.76-2.18,33.93,33.93,0,0,0-7.55-.84q-8.58,0-12.62,3.14a10.38,10.38,0,0,0-4,8.69,9.44,9.44,0,0,0,1.27,5.13,10.87,10.87,0,0,0,3.93,3.5,30.22,30.22,0,0,0,6.64,2.66c2.66.77,5.75,1.59,9.3,2.48a104.8,104.8,0,0,1,11.77,3.5,33.53,33.53,0,0,1,8.87,4.71,19.1,19.1,0,0,1,5.62,6.82,22.1,22.1,0,0,1,2,9.84,23.83,23.83,0,0,1-2.47,11.23,21.06,21.06,0,0,1-6.77,7.67,29.84,29.84,0,0,1-10,4.35,51.48,51.48,0,0,1-12.19,1.38,60.93,60.93,0,0,1-18.9-3,54.17,54.17,0,0,1-16.48-8.64L59,310.29a28.38,28.38,0,0,0,4.52,3.5,41.34,41.34,0,0,0,6.89,3.56,59,59,0,0,0,8.51,2.78,39,39,0,0,0,9.54,1.15q8,0,12.31-2.78a9.12,9.12,0,0,0,4.35-8.21,8.78,8.78,0,0,0-1.63-5.43,14,14,0,0,0-4.65-3.81,41.15,41.15,0,0,0-7.36-3q-4.35-1.32-9.9-2.77a102.41,102.41,0,0,1-11.17-3.57,27.74,27.74,0,0,1-7.91-4.52A17.65,17.65,0,0,1,57.74,281a20.62,20.62,0,0,1-1.63-8.64,24.88,24.88,0,0,1,2.41-11.16A24,24,0,0,1,65.1,253a28.94,28.94,0,0,1,9.84-5,43.27,43.27,0,0,1,12.32-1.69,45.18,45.18,0,0,1,16.06,2.78A53.28,53.28,0,0,1,116.24,256Z"/><path class="cls-1" d="M128.92,289.16a44.8,44.8,0,0,1,2.78-15.4A42.33,42.33,0,0,1,139.85,260a41,41,0,0,1,13.1-9.84,39.6,39.6,0,0,1,17.51-3.75q11.7,0,20,5.2a33.73,33.73,0,0,1,12.56,13.52l-10.63,7.12a24.15,24.15,0,0,0-4.34-6.52,21.09,21.09,0,0,0-5.56-4.22,23.93,23.93,0,0,0-6.28-2.24,31.64,31.64,0,0,0-6.28-.66,24.57,24.57,0,0,0-11.83,2.72,26.17,26.17,0,0,0-8.51,7.18,31.85,31.85,0,0,0-5.19,10,36.76,36.76,0,0,0-1.76,11.11,34.88,34.88,0,0,0,2.06,12,32.36,32.36,0,0,0,5.73,10,28.25,28.25,0,0,0,8.76,6.94,24,24,0,0,0,11.11,2.6,27.75,27.75,0,0,0,6.46-.79,24.39,24.39,0,0,0,6.4-2.53,25.79,25.79,0,0,0,5.67-4.41,22,22,0,0,0,4.29-6.4l11.23,6.4a26.11,26.11,0,0,1-5.8,8.51,36.69,36.69,0,0,1-8.45,6.22,43.61,43.61,0,0,1-10,3.87,42.3,42.3,0,0,1-10.33,1.32,35.48,35.48,0,0,1-16.54-3.86,43.57,43.57,0,0,1-12.92-10.08,46.54,46.54,0,0,1-8.45-14.13A44.71,44.71,0,0,1,128.92,289.16Z"/><path class="cls-1" d="M242.18,246.9H254l33.8,85.73H273.58l-9.06-23.31H231.43l-8.93,23.31H208.13Zm19.68,52.4L248.1,262.47,233.85,299.3Z"/><path class="cls-1" d="M313.18,272.25v60.38H299.66V246.9h10.62l49,61.82V247H373v85.61H361.72Z"/><path class="cls-1" d="M393.48,332.63V246.9h30.43a45.21,45.21,0,0,1,18.17,3.38,37.42,37.42,0,0,1,13,9.17A38.57,38.57,0,0,1,463,273a51.11,51.11,0,0,1,2.66,16.6,50.22,50.22,0,0,1-3,17.69,38.65,38.65,0,0,1-8.39,13.53,37.2,37.2,0,0,1-13.16,8.69,46.39,46.39,0,0,1-17.27,3.08Zm58.44-43a39.38,39.38,0,0,0-1.87-12.43,27.19,27.19,0,0,0-5.49-9.73,25.52,25.52,0,0,0-8.82-6.33,29,29,0,0,0-11.83-2.3H407v61.82h16.91a29.05,29.05,0,0,0,12-2.35,24.69,24.69,0,0,0,8.82-6.52,28.24,28.24,0,0,0,5.37-9.84A40.23,40.23,0,0,0,451.92,289.64Z"/><path class="cls-1" d="M481.14,332.63V246.9h13.53v85.73Z"/><path class="cls-1" d="M528.72,272.25v60.38H515.19V246.9h10.63l49,61.82V247h13.65v85.61H577.26Z"/><path class="cls-1" d="M634.25,246.9h11.84l33.81,85.73H665.65l-9.06-23.31H623.51l-8.94,23.31H600.2Zm19.68,52.4-13.76-36.83L625.92,299.3Z"/><path class="cls-1" d="M689.8,246.9l25.84,68.7,25.72-68.7h14.37l-34.3,85.73H709.84L675.43,246.9Z"/><path class="cls-1" d="M767.44,332.63V246.9H781v85.73Z"/><path class="cls-1" d="M826.73,246.9h11.83l33.81,85.73H858.12l-9.06-23.31H816L807,332.63H792.67Zm19.68,52.4-13.77-36.83L818.39,299.3Z"/><path class="cls-1" d="M193.58,79.49l54,129.2,54-129.2h10.8l-60,142H243l-60.2-142Z"/><path class="cls-1" d="M366.38,79.49h8.8l60,142h-10.8l-19.8-46.8h-67.8L317,221.49H306Zm35.4,86.8-31-74.4-31.6,74.4Z"/><path class="cls-1" d="M541.78,88.69h-52v132.8h-10.2V88.69h-52v-9.2h114.2Z"/><path class="cls-1" d="M646.18,103.09q-13.8-15.41-39-15.4-20.8,0-30.3,7.9t-9.5,21.3a23.85,23.85,0,0,0,2.4,11.3,20.63,20.63,0,0,0,7.5,7.7,50,50,0,0,0,12.9,5.4q7.8,2.21,18.8,4.6,11.4,2.4,20.7,5.3a59.81,59.81,0,0,1,15.8,7.3,30.8,30.8,0,0,1,10,10.8q3.49,6.41,3.5,15.8a34.57,34.57,0,0,1-3.7,16.4,32.91,32.91,0,0,1-10.4,11.7,48.94,48.94,0,0,1-16,7.1,82.86,82.86,0,0,1-20.7,2.4q-33.2,0-56.2-21.2l5.4-8.2a65.13,65.13,0,0,0,22,14.9,74.22,74.22,0,0,0,29.2,5.5q18.6,0,29.1-6.8t10.5-20.6a23.6,23.6,0,0,0-2.8-11.9,25.13,25.13,0,0,0-8.3-8.5,55.2,55.2,0,0,0-13.9-6.2q-8.4-2.59-19.6-5-11.4-2.4-20.1-5.1a53.08,53.08,0,0,1-14.6-6.8,27.28,27.28,0,0,1-8.9-9.9q-3-5.8-3-14.6a37.47,37.47,0,0,1,3.7-17A36,36,0,0,1,571,88.79a46,46,0,0,1,15.8-7.7,75,75,0,0,1,20.4-2.6,69,69,0,0,1,24.6,4.1,58,58,0,0,1,19.6,12.5Z"/><path class="cls-1" d="M684.38,221.49v-142h10.2v142Z"/><path class="cls-1" d="M860.18,221.49V98.69l-56,95.8h-6.4l-56-95.8v122.8h-10.2v-142h10.2L801,181.09l59.2-101.6h10.2v142Z"/><polygon class="cls-2" points="50 221 115 80 179 221 114 175 50 221"/></g></svg>