<?xml version="1.0" standalone="no"?>
<!DOCTYPE svg PUBLIC "-//W3C//DTD SVG 20010904//EN"
 "http://www.w3.org/TR/2001/REC-SVG-20010904/DTD/svg10.dtd">
<svg version="1.0" xmlns="http://www.w3.org/2000/svg"
 width="1024.000000pt" height="1024.000000pt" viewBox="0 0 1024.000000 1024.000000"
 preserveAspectRatio="xMidYMid meet">
<metadata>
Created by potrace 1.14, written by Peter Selinger 2001-2017
</metadata>
<g transform="translate(0.000000,1024.000000) scale(0.100000,-0.100000)"
fill="#000000" stroke="none">
<path d="M4220 10229 c-19 -5 -43 -11 -53 -14 -34 -8 -133 -66 -169 -100 -51
-48 -102 -124 -129 -193 -27 -72 -33 -214 -12 -287 39 -133 129 -242 247 -299
93 -44 119 -51 193 -51 35 0 63 -3 63 -7 0 -4 14 -3 30 2 19 5 30 5 30 -1 0
-6 4 -8 8 -5 10 6 83 8 134 4 20 -2 35 -1 33 3 -2 3 10 3 26 1 19 -3 27 -8 21
-14 -5 -5 -6 -24 -2 -43 4 -19 5 -37 2 -40 -7 -7 -4 -133 3 -145 4 -6 3 -10
-2 -10 -4 0 -7 -35 -6 -77 2 -73 3 -156 3 -195 0 -10 0 -28 0 -40 0 -13 -1
-36 -3 -53 -1 -16 1 -44 4 -61 4 -18 3 -37 -1 -44 -4 -7 -4 -26 -1 -44 4 -17
4 -46 0 -64 -3 -18 -3 -35 1 -37 5 -3 5 -18 0 -34 -4 -15 -4 -34 1 -42 12 -19
-9 -28 -43 -19 -17 5 -26 5 -23 -1 4 -5 -4 -5 -19 1 -16 6 -27 6 -31 -1 -4 -5
-13 -6 -22 0 -9 5 -29 5 -45 1 -15 -5 -28 -5 -28 0 0 5 -13 5 -30 0 -18 -5
-32 -5 -35 1 -4 5 -14 5 -25 -1 -13 -7 -21 -7 -25 0 -4 6 -13 7 -24 1 -9 -5
-23 -6 -30 -1 -8 4 -27 4 -42 0 -17 -5 -29 -5 -29 0 0 6 -10 6 -23 1 -13 -5
-30 -5 -37 -1 -8 5 -19 5 -25 0 -6 -5 -17 -5 -25 0 -8 5 -21 5 -30 0 -9 -5
-22 -5 -29 0 -8 4 -27 4 -42 0 -16 -5 -29 -5 -29 0 0 5 -13 5 -30 0 -16 -5
-32 -5 -34 -1 -3 4 -20 6 -38 4 -18 -2 -54 -6 -80 -8 -51 -4 -151 -30 -183
-48 -11 -6 -22 -11 -25 -12 -3 0 -29 -15 -59 -34 -64 -39 -171 -138 -171 -158
0 -7 -4 -13 -8 -13 -9 0 -65 -97 -60 -102 1 -2 -6 -16 -15 -33 -22 -38 -44
-138 -43 -193 1 -27 -3 -41 -10 -38 -6 2 -16 1 -23 -4 -7 -4 -27 -4 -45 0 -18
4 -42 3 -54 -1 -13 -5 -22 -4 -22 2 0 6 -7 6 -19 -1 -13 -7 -22 -7 -26 0 -4 7
-12 7 -25 0 -13 -7 -21 -7 -25 0 -4 6 -13 7 -24 1 -10 -6 -23 -6 -31 -1 -8 5
-21 5 -31 -1 -12 -6 -20 -5 -24 1 -4 6 -11 7 -18 3 -15 -9 -57 -10 -57 -1 0 4
-11 3 -25 -2 -16 -6 -25 -6 -25 0 0 6 -9 6 -25 0 -15 -6 -25 -6 -25 0 0 5 -12
5 -30 0 -18 -5 -30 -5 -30 0 0 6 -10 6 -24 0 -13 -5 -26 -7 -28 -4 -7 6 -98
11 -98 4 0 -3 -11 -5 -25 -5 -14 0 -25 4 -25 8 0 4 -9 3 -19 -3 -13 -7 -22 -7
-26 0 -4 6 -12 7 -23 1 -9 -5 -26 -5 -39 0 -14 5 -23 5 -23 -1 0 -6 -9 -6 -25
0 -15 6 -26 6 -30 0 -4 -7 -13 -6 -26 0 -10 6 -19 7 -19 3 0 -4 -11 -8 -25 -8
-14 0 -25 3 -25 7 0 4 -11 3 -24 -2 -13 -5 -26 -7 -28 -4 -7 6 -98 11 -98 4 0
-3 -11 -5 -25 -5 -14 0 -25 4 -25 8 0 4 -9 3 -19 -3 -13 -7 -22 -7 -26 0 -4 6
-12 7 -23 1 -9 -5 -26 -5 -39 0 -14 5 -23 5 -23 -1 0 -6 -9 -6 -25 0 -15 6
-26 6 -30 0 -4 -7 -13 -6 -26 0 -10 6 -19 7 -19 3 0 -4 -11 -8 -25 -8 -14 0
-25 3 -25 7 0 4 -11 3 -24 -2 -13 -5 -26 -7 -28 -4 -8 8 -99 10 -104 2 -3 -4
-16 -3 -29 2 -16 6 -25 6 -25 0 0 -5 -9 -6 -22 -1 -13 4 -35 5 -50 0 -16 -4
-30 -3 -34 2 -3 5 -10 6 -16 3 -6 -4 -31 -8 -55 -10 -95 -6 -194 -43 -286
-105 -146 -99 -240 -246 -272 -424 -12 -65 -12 -159 -1 -212 7 -32 46 -174 56
-203 13 -40 44 -144 46 -157 2 -13 23 -81 31 -103 3 -8 7 -19 8 -25 2 -5 26
-86 55 -180 28 -93 53 -174 54 -180 1 -5 6 -21 10 -35 4 -14 18 -61 31 -105
13 -44 40 -132 59 -195 100 -331 106 -351 106 -362 0 -5 7 -25 15 -45 13 -33
51 -158 75 -248 5 -16 22 -75 39 -130 101 -335 131 -436 147 -485 10 -30 18
-60 20 -66 1 -6 10 -38 20 -70 10 -33 18 -61 19 -64 1 -3 7 -23 13 -45 6 -22
11 -42 10 -45 -1 -3 4 -16 11 -28 18 -33 7 -65 -27 -79 -77 -34 -182 -178
-206 -282 -12 -52 -14 -193 -3 -231 2 -8 8 -28 12 -45 13 -46 69 -136 111
-178 67 -66 157 -118 232 -132 9 -2 17 -4 17 -5 0 -1 25 -3 55 -6 30 -2 61 -6
68 -9 6 -2 12 0 12 5 0 6 9 6 25 0 16 -6 25 -6 25 0 0 6 9 6 23 2 22 -9 75 -7
84 2 3 3 16 1 29 -4 14 -6 26 -6 29 1 4 5 11 6 18 2 14 -8 60 -9 73 0 5 3 16
2 24 -3 8 -5 21 -5 31 1 11 6 20 5 24 -1 4 -7 13 -7 25 0 20 11 20 11 35 -62
2 -10 0 -18 -4 -18 -4 0 -5 -20 -1 -45 4 -25 4 -45 1 -45 -6 0 -5 -86 2 -130
2 -13 1 -39 -4 -57 -4 -18 -3 -35 1 -38 4 -3 4 -21 0 -40 -4 -19 -4 -37 0 -40
4 -3 4 -21 0 -40 -4 -20 -4 -38 1 -41 5 -3 6 -10 3 -16 -8 -13 -8 -284 0 -297
4 -5 2 -12 -3 -15 -4 -3 -5 -23 -2 -43 4 -21 4 -49 1 -63 -4 -14 -3 -35 1 -46
4 -12 5 -24 2 -28 -3 -3 -5 -30 -4 -61 1 -30 2 -61 2 -67 0 -7 -1 -79 -2 -160
0 -81 2 -151 5 -157 4 -5 2 -12 -3 -15 -4 -3 -5 -23 -2 -43 4 -21 4 -49 1 -63
-4 -14 -3 -35 1 -46 4 -12 5 -24 2 -28 -3 -3 -5 -30 -4 -61 1 -30 2 -61 2 -67
0 -7 -1 -79 -2 -160 0 -81 2 -151 5 -157 4 -5 2 -12 -3 -15 -4 -3 -5 -23 -2
-43 4 -21 4 -49 1 -63 -4 -14 -3 -35 1 -46 4 -12 5 -24 2 -28 -5 -4 -5 -50 -2
-128 0 -7 0 -45 -1 -85 -1 -40 1 -76 4 -82 4 -5 2 -12 -3 -16 -6 -3 -8 -11 -6
-18 2 -7 6 -44 9 -83 8 -114 57 -221 137 -302 47 -47 134 -104 143 -95 3 4 6
0 6 -7 0 -7 3 -10 6 -7 4 3 16 1 28 -5 38 -21 191 -32 251 -17 65 16 68 17
106 33 53 22 179 123 179 142 0 3 11 20 24 37 33 45 67 142 71 204 1 28 6 56
9 61 4 6 2 13 -4 17 -6 4 -7 12 -1 22 5 9 5 29 1 45 -5 15 -5 28 0 28 5 0 5
13 0 30 -5 19 -5 30 1 30 6 0 5 8 -1 20 -6 11 -7 20 -3 20 4 0 8 25 8 55 0 30
-3 55 -7 55 -4 0 -3 11 2 25 6 15 6 27 0 30 -5 3 -7 12 -4 19 9 22 10 97 2
102 -5 3 -4 13 1 23 6 10 6 23 1 31 -5 8 -5 21 0 30 5 9 4 23 -1 33 -7 11 -7
17 0 17 7 0 7 8 1 25 -5 14 -6 25 -2 25 4 0 7 14 7 30 0 17 -3 30 -6 30 -4 0
-3 15 1 34 4 18 3 40 -1 49 -6 9 -5 18 0 21 6 4 6 18 1 36 -5 17 -5 30 0 30 5
0 5 13 0 30 -5 17 -6 30 -2 30 4 0 7 11 7 25 0 14 -3 25 -7 25 -4 0 -3 11 2
25 6 16 6 25 0 25 -6 0 -6 9 -1 23 5 13 5 30 0 39 -6 10 -6 19 0 23 6 3 7 15
1 29 -4 12 -4 29 0 36 5 8 4 22 -1 31 -6 11 -5 20 1 24 7 4 7 12 0 25 -6 11
-6 21 -1 25 6 3 6 17 1 35 -5 17 -5 30 0 30 5 0 5 13 0 30 -5 19 -5 30 1 30 6
0 5 8 -1 20 -6 11 -7 20 -3 20 4 0 8 25 8 55 0 30 -3 55 -7 55 -4 0 -3 11 2
25 6 15 6 27 0 30 -5 3 -7 12 -4 19 9 22 10 97 2 102 -5 3 -4 13 1 23 6 10 6
23 1 31 -5 8 -5 21 0 30 5 9 4 23 -1 33 -7 11 -7 17 0 17 7 0 7 8 1 25 -5 14
-6 25 -2 25 4 0 7 14 7 30 0 17 -3 30 -7 30 -4 0 -3 13 2 29 4 15 4 34 -1 42
-4 7 -4 19 2 25 6 8 7 14 0 18 -6 4 -6 18 -1 36 5 18 5 30 0 30 -6 0 -6 10 0
25 6 15 6 26 0 30 -6 4 -7 13 -1 24 6 10 6 23 1 31 -5 8 -5 21 0 30 5 9 5 22
0 30 -4 7 -6 19 -4 25 9 22 10 96 2 101 -5 3 -4 13 1 23 6 10 6 23 1 31 -5 8
-5 21 0 30 5 9 5 22 0 29 -4 8 -4 27 0 43 5 15 5 26 0 23 -4 -3 -6 4 -3 16 4
16 12 20 29 16 13 -2 24 0 24 4 0 5 11 4 25 -1 16 -6 26 -6 31 1 4 7 10 7 16
1 7 -7 19 -7 34 -2 14 6 26 6 29 0 3 -6 15 -6 30 0 14 5 25 6 25 2 0 -4 25 -7
55 -7 30 0 55 3 55 7 0 4 11 3 24 -2 15 -5 27 -5 34 2 6 6 12 6 16 -1 5 -7 15
-7 31 -1 14 5 25 6 25 2 0 -4 25 -7 55 -7 30 0 55 3 55 7 0 4 11 3 24 -2 15
-5 27 -5 34 2 6 6 12 6 16 -1 5 -7 15 -7 31 -1 14 5 25 6 25 2 0 -4 25 -7 55
-7 30 0 55 3 55 7 0 4 11 3 24 -2 15 -5 27 -5 34 2 6 6 12 6 16 -1 5 -7 15 -7
31 -1 14 5 25 6 25 2 0 -4 25 -7 55 -7 30 0 55 4 55 8 0 5 4 5 10 2 15 -9 80
-12 80 -3 0 4 11 3 25 -2 16 -6 25 -6 25 0 0 6 9 6 23 2 22 -9 75 -7 84 2 3 3
16 1 29 -4 14 -6 26 -6 29 1 4 5 12 6 18 2 16 -10 48 -10 70 0 9 4 17 4 17 0
0 -4 11 -8 25 -8 14 0 25 4 25 8 0 4 9 3 19 -3 14 -7 22 -7 26 0 4 7 11 7 18
2 7 -5 21 -6 32 -2 11 4 30 4 42 -1 13 -5 25 -4 28 2 4 5 12 6 18 2 16 -10 48
-10 70 0 9 4 17 4 17 0 0 -4 11 -8 25 -8 14 0 25 4 25 8 0 4 9 3 19 -3 13 -6
22 -7 26 0 3 5 11 7 18 4 21 -8 177 -10 177 -2 0 4 11 3 25 -2 15 -6 26 -6 30
0 4 6 13 7 23 1 11 -6 24 -6 34 0 10 6 19 6 23 0 4 -7 15 -7 31 -1 14 6 23 7
21 2 -3 -4 8 -7 24 -7 16 0 29 3 29 7 0 4 11 3 25 -2 15 -6 26 -6 30 0 4 6 13
7 23 1 11 -6 24 -6 34 0 10 6 19 6 23 0 4 -7 15 -7 31 -1 14 6 23 7 21 2 -3
-4 8 -7 24 -7 16 0 29 3 29 7 0 4 11 3 25 -2 15 -6 27 -6 30 0 3 6 15 6 30 0
15 -6 27 -6 30 0 4 6 13 7 23 1 11 -6 24 -6 34 0 10 6 19 6 23 0 4 -7 15 -7
30 -1 14 5 25 6 25 2 0 -4 13 -7 29 -7 16 0 27 3 24 7 -2 5 7 4 21 -2 16 -6
27 -6 31 0 4 6 13 7 24 1 10 -6 23 -6 31 -1 8 5 18 6 24 3 14 -9 67 -9 73 0 2
4 13 3 23 -3 13 -7 21 -7 25 0 4 6 11 8 16 4 14 -9 229 -10 229 -2 0 4 11 3
25 -2 15 -6 26 -6 30 0 4 6 13 7 23 1 11 -6 24 -6 34 0 10 6 19 6 23 0 4 -7
15 -7 31 -1 14 6 23 7 21 2 -3 -4 8 -7 24 -7 16 0 29 3 29 7 0 4 11 3 25 -2
15 -6 26 -6 30 0 4 6 13 7 24 1 10 -6 23 -6 31 -1 8 5 19 6 24 2 16 -9 46 -10
46 -1 0 9 28 1 47 -13 8 -7 9 -17 3 -34 -6 -14 -6 -24 0 -24 5 0 5 -12 0 -30
-5 -17 -5 -30 0 -30 5 0 5 -13 0 -30 -5 -19 -5 -30 1 -30 6 0 6 -6 0 -18 -6
-11 -6 -24 0 -34 6 -10 6 -19 0 -23 -7 -4 -7 -15 -1 -30 6 -16 6 -25 0 -25 -6
0 -6 -9 0 -25 5 -14 6 -25 1 -25 -5 0 -5 -16 -1 -35 4 -19 5 -35 1 -35 -3 0
-6 -25 -6 -55 0 -30 3 -55 7 -55 4 0 5 -6 2 -14 -9 -22 -10 -106 -1 -106 4 0
3 -8 -2 -18 -6 -11 -6 -24 0 -34 6 -10 6 -19 0 -23 -7 -4 -7 -15 -1 -30 6 -16
6 -25 0 -25 -6 0 -6 -9 0 -25 5 -14 6 -25 1 -25 -5 0 -5 -16 -1 -35 4 -19 5
-35 1 -35 -3 0 -6 -25 -6 -55 0 -30 3 -55 7 -55 4 0 5 -6 2 -14 -8 -21 -10
-106 -2 -106 4 0 3 -13 -2 -30 -5 -19 -5 -30 1 -30 6 0 6 -6 0 -18 -6 -11 -6
-24 0 -35 7 -11 6 -24 -1 -37 -8 -14 -8 -20 0 -20 8 0 8 -6 0 -20 -8 -14 -8
-20 0 -20 8 0 8 -6 0 -20 -8 -14 -8 -20 0 -20 8 0 8 -6 0 -20 -8 -14 -8 -20 0
-20 8 0 8 -6 0 -20 -8 -14 -8 -20 0 -20 8 0 8 -6 0 -20 -8 -14 -8 -20 0 -20 8
0 8 -6 0 -20 -8 -14 -8 -20 0 -20 8 0 8 -6 0 -20 -8 -14 -8 -20 0 -20 8 0 8
-6 0 -20 -8 -14 -8 -20 0 -20 8 0 8 -6 0 -20 -8 -14 -8 -20 0 -20 8 0 8 -6 0
-20 -8 -14 -8 -20 0 -20 8 0 8 -6 0 -20 -8 -14 -8 -20 0 -20 8 0 8 -6 0 -20
-8 -14 -8 -20 0 -20 8 0 8 -6 0 -20 -8 -14 -8 -20 0 -20 8 0 8 -6 0 -20 -8
-14 -8 -20 0 -20 8 0 8 -6 0 -20 -7 -13 -7 -26 -1 -38 7 -13 7 -22 0 -29 -7
-7 -7 -13 -1 -17 7 -4 7 -17 2 -36 -5 -18 -5 -30 0 -30 6 0 6 -10 0 -25 -6
-15 -6 -26 0 -30 6 -4 7 -13 1 -24 -6 -10 -6 -23 -1 -31 5 -8 5 -21 0 -30 -5
-9 -5 -22 0 -30 4 -7 6 -19 4 -25 -9 -22 -10 -96 -2 -101 5 -3 4 -13 -1 -23
-6 -10 -6 -23 -1 -31 5 -8 5 -21 0 -30 -5 -9 -5 -22 0 -30 5 -8 5 -21 0 -30
-6 -11 -5 -21 1 -27 7 -7 7 -13 1 -17 -7 -4 -7 -17 -2 -36 5 -17 5 -30 0 -30
-5 0 -5 -13 0 -30 5 -16 5 -30 2 -30 -8 0 -7 -29 3 -120 7 -61 50 -179 71
-196 8 -6 11 -14 7 -17 -3 -4 -1 -7 5 -7 7 0 12 -5 12 -10 0 -15 69 -78 125
-115 78 -50 122 -63 240 -70 60 -4 90 0 165 19 56 15 147 72 197 124 64 66
116 175 128 272 4 30 9 58 12 63 2 4 -1 7 -7 7 -6 0 -8 4 -5 10 7 11 8 92 2
125 -2 11 -1 34 4 52 4 18 3 35 -1 38 -4 3 -4 21 0 40 4 19 4 37 0 40 -4 3 -4
21 0 40 4 19 4 37 -1 40 -4 3 -6 11 -4 18 9 24 11 82 4 109 -4 15 -4 30 0 33
5 2 5 23 1 45 -4 22 -4 40 0 40 4 0 4 20 0 45 -4 25 -4 45 -1 45 7 0 4 118 -4
138 -2 6 -1 12 4 12 4 0 5 20 1 45 -4 25 -4 45 -1 45 6 0 5 86 -2 130 -2 13
-1 39 4 57 4 18 3 35 -1 38 -4 3 -4 21 0 40 4 19 4 37 0 40 -4 3 -4 21 0 40 4
19 4 37 0 40 -4 3 -5 20 -1 37 4 18 8 35 9 38 1 3 -3 21 -7 41 -5 21 -5 42 -1
49 4 7 4 27 0 46 -4 19 -5 34 -1 34 5 0 6 129 1 205 -1 17 -1 35 0 40 4 25 1
206 -5 214 -3 5 -1 12 4 15 5 3 6 21 1 40 -4 19 -4 39 0 46 4 7 4 27 0 46 -4
19 -5 34 -1 34 7 0 5 206 -3 226 -3 7 -1 16 5 19 5 4 7 11 4 16 -6 9 -7 54 -3
146 1 24 -1 46 -5 49 -15 15 14 33 38 24 14 -5 26 -5 33 2 6 6 12 6 16 -1 5
-7 15 -7 31 -1 14 5 25 6 25 2 0 -4 13 -7 29 -7 16 0 27 3 24 7 -2 5 7 4 21
-2 16 -6 27 -6 31 0 4 7 13 6 25 0 13 -7 21 -7 25 0 4 6 11 8 16 4 13 -7 133
-8 214 -1 71 6 167 40 212 73 17 13 34 24 37 24 19 0 120 126 142 179 16 37
17 40 32 102 8 33 8 150 0 204 -11 68 -68 173 -124 229 -46 45 -101 86 -107
80 -15 -15 -17 47 -3 80 8 20 13 36 11 36 -2 0 5 26 16 58 11 31 22 64 24 73
6 29 46 162 66 222 11 32 17 62 14 67 -3 4 -2 10 3 12 7 3 77 223 107 338 9
34 97 326 102 340 6 16 9 23 17 55 8 30 39 132 91 305 26 85 49 166 52 179 2
14 10 29 16 33 7 4 9 8 6 8 -4 0 11 60 33 133 21 72 41 139 43 147 2 8 20 69
40 135 20 66 40 134 44 151 5 18 12 37 16 44 5 7 9 23 11 34 2 12 17 66 34
121 17 55 33 105 34 110 1 6 10 35 19 65 23 78 29 116 31 190 2 61 -9 146 -22
180 -3 8 -6 17 -7 20 -31 122 -155 284 -265 348 -111 65 -192 92 -286 97 -23
1 -46 5 -52 9 -6 3 -13 2 -17 -3 -4 -7 -15 -7 -30 -1 -14 5 -25 6 -25 2 0 -9
-63 -8 -78 2 -6 3 -13 2 -17 -4 -4 -7 -12 -7 -26 0 -13 8 -19 7 -19 0 0 -6 -5
-8 -11 -4 -14 8 -134 8 -148 -1 -6 -3 -11 -1 -11 5 0 7 -6 8 -18 1 -13 -7 -22
-7 -29 0 -8 8 -13 7 -17 0 -5 -8 -13 -8 -26 -1 -12 6 -21 7 -25 0 -4 -6 -15
-6 -30 0 -14 5 -25 6 -25 2 0 -9 -63 -8 -78 2 -6 3 -13 2 -17 -4 -4 -7 -12 -7
-26 0 -13 8 -19 7 -19 0 0 -6 -5 -8 -11 -4 -14 8 -134 8 -148 -1 -6 -3 -11 -1
-11 5 0 7 -6 8 -18 1 -13 -7 -22 -7 -29 0 -8 8 -13 7 -17 0 -5 -8 -13 -8 -26
-1 -12 6 -21 7 -25 0 -4 -6 -15 -6 -30 0 -14 5 -25 6 -25 2 0 -4 -18 -7 -40
-7 -22 0 -40 3 -40 7 0 4 -11 3 -25 -2 -16 -6 -25 -6 -25 0 0 6 -9 6 -24 0
-15 -5 -27 -5 -34 2 -7 7 -16 6 -30 -1 -15 -8 -23 -8 -27 -1 -4 7 -11 7 -18 2
-7 -5 -21 -6 -32 -2 -11 4 -30 4 -42 -1 -15 -5 -23 -5 -23 2 0 6 -7 6 -19 -1
-14 -7 -22 -7 -26 0 -4 7 -11 7 -18 2 -7 -5 -21 -6 -32 -2 -11 4 -29 4 -40 0
-11 -4 -29 -4 -40 0 -11 4 -30 4 -41 -1 -12 -4 -26 -3 -32 3 -6 6 -12 6 -16
-1 -5 -8 -13 -8 -27 -1 -10 6 -19 7 -19 3 0 -10 -41 -10 -57 0 -7 4 -14 3 -18
-3 -4 -7 -12 -7 -26 0 -10 6 -19 7 -19 3 0 -12 -46 -10 -48 2 -1 6 -4 33 -6
60 -4 54 -4 54 -30 130 -9 28 -18 55 -19 60 -6 22 -61 115 -69 115 -4 0 -8 6
-8 14 0 32 -216 206 -234 189 -3 -4 -6 0 -6 7 0 7 -3 10 -7 7 -3 -4 -17 0 -30
8 -13 9 -36 18 -51 20 -15 2 -38 7 -52 10 -14 4 -44 8 -67 9 -23 1 -45 5 -48
8 -4 3 -19 2 -35 -2 -16 -4 -31 -6 -34 -2 -7 7 -66 9 -66 2 0 -7 -66 -4 -79 4
-5 4 -12 2 -16 -4 -4 -6 -13 -7 -23 -1 -10 5 -24 6 -33 1 -8 -5 -21 -5 -28 0
-8 4 -27 4 -42 0 -17 -5 -29 -5 -29 0 0 6 -9 6 -23 1 -13 -5 -30 -5 -39 0 -11
6 -19 5 -23 -1 -4 -6 -13 -7 -24 -1 -10 6 -23 6 -31 1 -8 -5 -21 -5 -30 0 -9
5 -22 5 -30 0 -8 -5 -22 -4 -32 1 -12 6 -18 6 -18 0 0 -6 -11 -6 -30 -1 -17 5
-30 5 -30 0 0 -5 -13 -5 -30 0 -17 5 -32 5 -35 0 -3 -5 -16 -5 -28 -1 -26 10
-29 24 -28 151 1 36 0 72 0 80 0 8 0 47 0 85 0 39 0 77 0 85 0 8 0 42 0 75 1
33 0 67 0 75 0 8 0 43 1 77 1 34 0 65 -3 70 -3 5 -2 15 2 22 5 7 5 27 2 45 -4
17 -4 46 0 64 3 18 3 35 -1 37 -5 3 -5 18 0 33 4 16 4 36 -1 44 -7 12 -2 17
22 20 16 3 32 1 35 -4 3 -4 13 -4 23 2 10 5 21 6 25 3 8 -8 85 -8 93 0 3 4 13
2 22 -3 10 -5 23 -5 31 0 8 5 21 5 31 0 9 -5 19 -7 22 -3 4 3 28 7 54 8 74 3
112 14 184 52 71 36 161 119 182 165 6 15 15 28 18 28 15 0 51 139 55 209 10
212 -115 399 -321 477 -48 18 -93 19 -935 20 -512 1 -900 -2 -920 -7z m-2347
-3513 c8 9 61 11 88 3 15 -4 32 -3 39 1 7 5 23 5 34 0 11 -4 33 -4 48 1 16 4
28 4 28 0 0 -5 15 -5 33 -2 17 4 47 4 65 0 17 -4 34 -3 37 2 3 4 16 5 28 0 12
-5 31 -5 42 -1 11 4 24 5 29 2 6 -3 28 -5 50 -4 92 4 126 3 133 -1 4 -2 17 -1
28 3 11 4 32 4 46 0 15 -4 32 -4 39 0 7 5 23 5 34 0 11 -4 33 -4 48 1 16 4 28
4 28 0 0 -5 15 -5 33 -2 17 4 47 4 65 0 17 -4 34 -3 37 2 3 4 16 4 28 0 12 -5
32 -5 44 0 13 5 25 4 28 -1 3 -5 18 -5 35 0 17 5 30 5 30 0 0 -4 15 -5 33 0
18 4 42 4 52 0 11 -3 30 -5 42 -4 15 1 22 -6 26 -23 2 -13 0 -26 -4 -29 -5 -3
-5 -13 0 -23 6 -10 6 -23 1 -31 -5 -8 -4 -22 1 -32 6 -12 6 -18 0 -18 -7 0 -7
-9 -1 -25 5 -14 6 -25 2 -25 -4 0 -7 -13 -7 -30 0 -16 2 -30 5 -30 7 0 4 -66
-5 -79 -3 -6 -1 -11 5 -11 8 0 8 -6 0 -20 -8 -14 -8 -20 0 -20 8 0 8 -6 0 -20
-8 -14 -8 -20 0 -20 8 0 8 -6 0 -20 -8 -14 -8 -20 0 -20 8 0 8 -6 0 -20 -8
-14 -8 -20 0 -20 8 0 8 -6 0 -20 -8 -14 -8 -20 0 -20 8 0 8 -6 0 -20 -8 -14
-8 -20 0 -20 8 0 8 -6 0 -20 -8 -14 -8 -20 0 -20 8 0 8 -6 0 -20 -8 -14 -8
-20 0 -20 8 0 8 -6 0 -20 -8 -14 -8 -20 0 -20 8 0 8 -6 0 -20 -8 -14 -8 -20 0
-20 8 0 8 -6 0 -20 -8 -14 -8 -20 0 -20 8 0 8 -6 0 -20 -8 -14 -8 -20 0 -20 8
0 8 -6 0 -20 -8 -14 -8 -20 0 -20 8 0 8 -6 0 -20 -8 -14 -8 -20 0 -20 7 0 8
-6 1 -17 -13 -26 -13 -26 -2 -55 6 -17 7 -28 1 -28 -6 0 -6 -9 0 -24 5 -13 6
-27 3 -30 -9 -9 -9 -76 0 -76 4 0 3 -8 -2 -18 -6 -11 -6 -24 0 -34 6 -10 6
-19 0 -23 -7 -4 -7 -15 -1 -30 6 -16 6 -25 0 -25 -6 0 -6 -9 0 -25 5 -14 6
-25 1 -25 -5 0 -5 -16 -1 -35 4 -19 4 -35 0 -35 -5 0 -5 -12 -1 -27 4 -16 4
-40 0 -55 -4 -16 -4 -28 0 -28 7 0 5 -86 -4 -107 -2 -7 0 -13 6 -13 7 0 7 -6
0 -17 -6 -11 -6 -24 0 -35 6 -10 5 -19 -1 -23 -6 -4 -6 -15 0 -30 6 -16 6 -25
0 -25 -6 0 -6 -9 0 -25 5 -14 6 -25 1 -25 -5 0 -5 -16 -1 -35 4 -19 4 -35 0
-35 -5 0 -5 -12 -1 -27 4 -16 4 -40 0 -55 -4 -16 -4 -28 0 -28 7 0 5 -86 -4
-107 -2 -7 0 -13 5 -13 5 0 5 -13 0 -30 -5 -19 -5 -30 1 -30 7 0 7 -6 0 -17
-6 -11 -6 -24 0 -35 6 -12 6 -25 -1 -38 -8 -14 -8 -20 0 -20 8 0 8 -6 0 -20
-8 -14 -8 -20 0 -20 8 0 8 -6 0 -20 -8 -14 -8 -20 0 -20 8 0 8 -6 0 -20 -8
-14 -8 -20 0 -20 7 0 8 -6 0 -19 -7 -14 -7 -22 0 -26 7 -4 7 -11 2 -18 -5 -7
-6 -21 -2 -32 4 -11 3 -32 -2 -47 -8 -23 -13 -26 -33 -18 -15 6 -27 6 -30 0
-4 -6 -13 -7 -23 -1 -11 6 -24 6 -34 0 -10 -6 -19 -6 -23 0 -3 7 -15 7 -30 1
-15 -6 -27 -6 -30 0 -3 5 -15 6 -29 0 -12 -4 -28 -5 -34 -1 -13 8 -76 6 -91
-3 -5 -4 -12 -2 -15 3 -4 5 -19 6 -34 2 -15 -4 -40 -4 -57 -1 -16 4 -38 3 -47
-2 -10 -5 -19 -4 -23 2 -4 6 -15 6 -30 0 -14 -5 -25 -6 -25 -2 0 4 -18 6 -40
4 -39 -4 -47 4 -41 41 0 4 -4 7 -10 7 -5 0 -8 3 -6 8 3 4 0 18 -6 32 -5 14
-11 32 -13 40 -3 16 -22 79 -61 205 -14 44 -26 87 -28 95 -4 14 -21 73 -66
220 -36 116 -41 135 -42 153 -1 9 -5 17 -9 17 -4 0 -7 3 -7 8 1 4 0 9 -1 12
-1 3 -3 12 -5 21 -1 8 -15 56 -30 105 -15 49 -35 116 -45 149 -10 33 -25 85
-34 115 -10 30 -20 62 -23 70 -3 8 -7 22 -7 30 -1 8 -7 29 -13 45 -6 17 -24
71 -38 120 -15 50 -38 125 -51 169 -14 43 -26 86 -28 95 -2 9 -6 23 -9 31 -3
8 -15 49 -27 90 -11 41 -23 82 -26 90 -3 8 -6 17 -6 20 -1 4 -38 124 -68 222
-4 14 -6 29 -2 32 3 3 0 6 -6 6 -7 0 -12 9 -12 19 0 11 -11 51 -24 90 -13 39
-22 71 -19 71 3 0 0 7 -7 15 -7 8 -10 15 -7 15 4 0 0 19 -8 41 -18 51 -19 63
-2 56 6 -2 21 -1 32 3 11 4 27 4 36 -1 9 -5 19 -6 22 -3z m2412 4 c11 4 32 4
46 0 15 -4 32 -4 39 0 7 5 23 4 36 0 12 -5 24 -7 27 -4 8 9 61 11 88 3 15 -4
32 -3 39 1 7 5 23 5 34 0 11 -4 33 -4 48 1 16 4 28 4 28 0 0 -5 15 -5 33 -2
17 4 47 4 65 0 17 -4 34 -3 37 2 3 4 16 5 28 0 12 -5 31 -5 42 -1 11 4 24 5
29 2 6 -3 28 -5 50 -4 23 1 60 2 84 2 50 -1 127 0 145 1 6 0 21 0 32 -1 27 -1
87 -1 103 -1 17 1 38 1 65 1 12 0 33 1 47 3 14 2 36 0 50 -4 14 -3 35 -3 46 1
11 5 27 4 34 0 7 -5 24 -4 36 0 13 5 26 5 29 1 3 -5 20 -6 37 -2 18 4 47 4 63
1 17 -4 37 -3 46 1 8 4 21 4 29 -1 7 -4 24 -4 36 0 13 5 26 5 28 1 3 -5 20 -5
38 -2 18 4 48 4 66 0 17 -4 34 -3 37 2 3 4 18 4 33 -2 15 -6 29 -9 31 -7 2 2
7 -7 12 -19 5 -13 4 -23 -1 -23 -5 0 -5 -13 0 -30 5 -17 5 -30 0 -30 -5 0 -5
-12 -1 -28 5 -15 5 -37 0 -49 -5 -13 -4 -25 1 -28 6 -4 7 -13 1 -24 -5 -9 -6
-23 -2 -30 5 -7 5 -30 1 -51 -4 -21 -4 -44 1 -51 4 -7 4 -20 -1 -29 -5 -9 -5
-22 0 -30 5 -8 5 -21 1 -29 -5 -8 -5 -27 -1 -43 5 -15 5 -28 0 -28 -5 0 -5
-13 0 -30 5 -17 5 -30 0 -30 -5 0 -5 -13 0 -30 5 -17 5 -30 0 -30 -5 0 -5 -13
0 -30 5 -17 5 -30 0 -30 -5 0 -5 -13 0 -30 5 -16 6 -30 2 -30 -4 0 -7 -16 -7
-35 0 -19 3 -35 7 -35 4 0 3 -13 -2 -30 -5 -16 -5 -30 -1 -30 4 0 5 -22 1 -50
-3 -27 -3 -55 1 -62 4 -7 4 -19 -1 -27 -4 -9 -4 -23 0 -31 5 -9 5 -22 0 -29
-4 -8 -4 -27 0 -42 5 -16 5 -29 0 -29 -5 0 -5 -13 0 -30 5 -17 5 -30 0 -30 -5
0 -5 -13 0 -30 5 -17 5 -30 0 -30 -5 0 -5 -13 0 -30 5 -17 5 -30 0 -30 -5 0
-5 -13 0 -30 5 -16 6 -30 2 -30 -4 0 -7 -16 -7 -35 0 -19 3 -35 7 -35 4 0 3
-13 -2 -30 -5 -16 -5 -30 -1 -30 4 0 5 -22 1 -50 -3 -27 -3 -55 1 -62 4 -7 4
-19 -1 -27 -4 -9 -4 -23 0 -31 5 -9 5 -22 0 -29 -4 -8 -4 -27 0 -42 5 -16 5
-29 0 -29 -5 0 -5 -13 0 -30 5 -17 5 -30 0 -30 -5 0 -5 -13 0 -30 5 -17 5 -30
0 -30 -5 0 -5 -13 0 -30 5 -17 5 -30 0 -30 -5 0 -5 -13 0 -30 5 -16 6 -30 2
-30 -4 0 -7 -16 -7 -35 0 -19 3 -35 7 -35 4 0 3 -13 -2 -30 -5 -16 -5 -30 -1
-30 4 0 5 -22 1 -50 -3 -27 -3 -55 1 -62 4 -7 4 -19 -1 -27 -4 -9 -4 -23 0
-31 5 -9 5 -22 0 -29 -4 -8 -4 -27 0 -42 5 -16 5 -29 0 -29 -5 0 -5 -13 0 -30
5 -16 5 -30 1 -30 -5 0 -6 -12 -3 -27 2 -16 1 -25 -3 -21 -4 4 -18 3 -31 -2
-14 -6 -24 -6 -24 0 0 5 -12 5 -27 1 -16 -4 -41 -4 -58 -1 -16 4 -38 3 -47 -2
-10 -5 -19 -4 -23 2 -4 6 -15 6 -30 0 -14 -5 -25 -6 -25 -1 0 4 -20 5 -45 1
-25 -4 -48 -3 -51 1 -2 5 -16 4 -29 -1 -15 -6 -27 -6 -30 0 -3 5 -15 6 -28 1
-12 -5 -34 -5 -49 0 -16 4 -28 4 -28 -1 0 -6 -10 -6 -25 0 -15 6 -27 6 -30 0
-3 -6 -15 -6 -30 0 -15 6 -27 6 -30 -1 -4 -6 -13 -6 -23 0 -9 5 -23 6 -32 1
-9 -5 -22 -5 -30 0 -8 5 -21 5 -31 -1 -11 -6 -20 -5 -24 1 -4 6 -15 6 -30 0
-14 -5 -25 -6 -25 -2 0 8 -57 8 -66 -1 -3 -3 -18 -1 -33 4 -28 11 -28 11 -53
-2 -10 -5 -19 -5 -23 0 -3 5 -18 6 -33 2 -15 -4 -40 -4 -57 -1 -16 4 -38 3
-47 -2 -10 -5 -19 -4 -23 2 -4 6 -15 6 -30 0 -14 -5 -25 -6 -25 -1 0 4 -20 5
-45 1 -25 -4 -48 -3 -51 1 -2 5 -15 4 -28 -1 -12 -4 -29 -4 -36 0 -8 5 -22 4
-31 -1 -11 -6 -20 -5 -24 1 -3 6 -15 6 -30 0 -15 -6 -27 -6 -30 0 -3 6 -15 6
-30 0 -15 -6 -25 -6 -25 0 0 5 -12 5 -29 0 -15 -4 -34 -4 -42 0 -7 5 -21 4
-30 -1 -11 -6 -20 -5 -24 1 -3 6 -15 6 -30 0 -15 -6 -27 -6 -30 0 -3 6 -15 6
-30 0 -14 -5 -25 -6 -25 -1 0 5 -12 6 -26 2 -40 -10 -96 -1 -90 15 3 7 1 16
-4 19 -6 4 -7 13 -1 24 6 10 6 23 1 31 -5 8 -5 21 0 30 5 9 5 22 0 30 -4 7 -4
24 0 36 6 14 5 26 0 29 -6 4 -7 13 -1 24 5 9 6 23 2 29 -4 7 -5 33 -1 57 4 25
4 45 1 45 -7 0 -4 108 4 127 2 7 0 15 -5 18 -5 3 -6 15 0 29 4 12 4 29 0 36
-5 8 -6 18 -3 23 8 13 9 77 1 90 -3 6 -3 18 2 27 5 9 5 22 0 30 -5 8 -5 21 0
30 5 9 5 22 0 30 -5 8 -5 21 0 30 5 9 5 22 0 30 -5 8 -5 21 0 30 5 9 5 22 0
30 -5 8 -5 21 0 30 5 9 5 22 0 30 -5 8 -5 21 0 30 5 9 5 22 0 30 -5 8 -5 21 0
30 5 9 5 22 0 30 -5 8 -5 21 0 30 5 9 5 22 0 30 -5 8 -5 21 0 30 5 9 5 22 1
28 -4 7 -5 33 -1 57 4 25 4 45 1 45 -7 0 -4 108 4 127 2 7 0 15 -5 18 -5 3 -6
15 0 29 4 12 4 29 0 36 -5 8 -6 18 -3 23 8 13 9 97 1 97 -4 0 -3 14 2 30 5 17
6 30 2 30 -8 0 -7 68 1 76 3 3 2 17 -3 30 -6 14 -6 24 0 24 5 0 5 12 0 30 -5
17 -5 30 0 30 5 0 5 13 0 30 -5 17 -5 30 0 30 5 0 5 13 0 30 -5 17 -5 30 0 30
5 0 5 12 1 28 -5 15 -5 37 0 49 5 13 4 25 -1 28 -6 4 -7 13 -1 24 5 9 6 23 2
29 -4 7 -5 33 -1 57 4 24 3 49 -1 56 -4 6 -3 25 1 40 5 17 5 29 0 29 -6 0 -6
10 -1 23 5 13 5 30 1 37 -5 8 -5 21 0 30 5 9 5 22 0 30 -5 8 -5 21 -1 29 5 9
6 22 3 30 -3 10 1 13 16 9 11 -3 26 -2 33 2 7 5 22 5 33 0 12 -4 30 -4 41 0z
m2845 0 c7 5 23 5 34 0 12 -4 30 -4 41 0 11 4 24 5 29 2 6 -3 95 -4 189 -1 6
0 21 0 32 -1 27 -1 87 -1 103 -1 17 1 38 1 65 1 12 0 33 1 47 3 14 2 36 0 50
-4 14 -3 35 -3 47 2 12 4 25 4 28 -1 3 -5 18 -5 33 -1 15 5 36 5 47 1 11 -4
30 -4 41 1 12 4 25 5 28 2 8 -8 74 -8 82 -1 3 3 21 2 40 -2 18 -4 34 -4 34 0
0 5 13 5 29 0 15 -4 34 -4 42 0 7 5 17 6 23 3 11 -7 126 -6 133 1 2 2 18 0 34
-4 16 -5 31 -5 34 0 3 5 16 6 28 1 12 -4 28 -6 36 -3 10 3 11 -3 6 -29 -4 -19
-10 -38 -13 -44 -4 -5 -7 -14 -9 -20 -9 -42 -10 -47 -84 -287 -17 -53 -32
-105 -34 -115 -2 -10 -10 -38 -18 -63 -38 -115 -71 -226 -69 -233 1 -4 -5 -21
-13 -37 -9 -17 -13 -30 -10 -30 4 0 3 -6 -2 -12 -4 -7 -8 -17 -9 -23 -1 -5
-12 -44 -25 -85 -12 -41 -23 -80 -25 -86 -1 -6 -14 -51 -30 -100 -15 -49 -29
-93 -30 -99 -1 -5 -16 -57 -34 -114 -17 -57 -33 -111 -35 -120 -3 -9 -36 -122
-76 -251 -92 -304 -109 -362 -114 -380 -2 -8 -13 -46 -25 -85 -12 -38 -23 -77
-25 -86 -2 -8 -10 -31 -18 -51 -9 -20 -13 -39 -10 -41 2 -3 -3 -19 -12 -36 -8
-17 -13 -31 -9 -31 4 0 2 -6 -4 -12 -6 -7 -10 -16 -10 -21 0 -4 -3 -20 -7 -36
-5 -24 -12 -30 -41 -33 -19 -2 -37 -1 -40 4 -3 4 -16 3 -29 -2 -15 -6 -27 -6
-30 0 -3 5 -15 6 -28 1 -12 -5 -34 -5 -49 0 -16 4 -28 4 -28 -1 0 -6 -10 -6
-25 0 -15 6 -27 6 -30 0 -3 -6 -15 -6 -30 0 -15 6 -27 6 -30 0 -4 -6 -13 -7
-24 -1 -10 6 -23 6 -31 1 -8 -5 -21 -5 -30 0 -9 5 -22 5 -30 0 -8 -5 -19 -5
-25 -1 -12 9 -26 8 -40 -1 -6 -4 -17 -3 -25 2 -7 4 -23 5 -34 1 -26 -9 -71 1
-71 16 0 6 -3 15 -7 18 -4 4 -3 16 2 26 7 12 7 20 0 24 -7 4 -7 12 -1 23 6 10
6 23 0 34 -6 10 -5 19 1 23 7 4 7 12 0 25 -6 11 -6 21 -1 25 6 3 6 17 1 35 -5
17 -5 30 0 30 5 0 5 13 0 30 -5 19 -5 30 1 30 6 0 5 8 -1 20 -6 12 -7 20 -1
20 5 0 6 12 2 28 -4 15 -4 39 0 55 4 15 4 27 -1 27 -6 0 -6 10 0 25 5 13 6 26
2 29 -8 5 -6 80 2 102 3 7 1 16 -4 19 -6 4 -7 13 -1 24 6 10 6 23 1 31 -5 8
-5 21 0 30 5 9 4 23 -1 33 -7 11 -7 17 0 17 7 0 7 8 1 25 -5 14 -6 25 -2 25 4
0 7 14 7 30 0 17 -3 30 -6 30 -4 0 -3 15 1 34 4 18 3 40 -1 49 -6 9 -5 18 0
21 6 4 6 18 1 36 -5 17 -5 30 0 30 5 0 5 13 0 30 -5 17 -6 30 -2 30 4 0 7 11
7 25 0 14 -3 25 -7 25 -4 0 -3 11 2 25 6 16 6 25 0 25 -6 0 -6 9 -1 23 5 13 5
30 0 39 -6 10 -6 19 0 23 6 3 7 15 1 29 -4 12 -4 29 0 36 5 8 4 22 -1 31 -6
11 -5 20 1 24 7 4 7 12 0 25 -6 11 -6 21 -1 25 6 3 6 17 1 35 -5 17 -5 30 0
30 5 0 5 13 0 30 -5 19 -5 30 1 30 6 0 5 8 -1 20 -6 12 -7 20 -1 20 5 0 6 12
2 28 -4 15 -4 39 0 55 4 15 4 27 -1 27 -6 0 -6 10 0 25 5 13 6 26 2 29 -8 5
-6 80 2 102 3 7 1 16 -5 19 -6 4 -6 13 0 23 5 9 6 23 1 32 -5 9 -5 22 0 30 5
8 4 22 -1 32 -6 12 -6 18 0 18 7 0 7 9 1 25 -5 14 -6 25 -2 25 4 0 7 14 7 30
0 17 -2 30 -5 30 -7 0 -4 66 5 79 3 6 1 11 -5 11 -8 0 -8 6 0 20 8 14 8 20 0
20 -8 0 -8 6 0 20 8 14 8 20 0 20 -8 0 -8 6 0 20 8 14 8 20 0 20 -7 0 -8 6 0
19 7 14 7 22 0 26 -7 4 -7 11 -2 18 5 7 6 21 2 32 -15 41 17 79 54 65 13 -4
29 -5 36 0z"/>
</g>
</svg>
