<?xml version="1.0" standalone="no"?>
<!DOCTYPE svg PUBLIC "-//W3C//DTD SVG 20010904//EN"
 "http://www.w3.org/TR/2001/REC-SVG-20010904/DTD/svg10.dtd">
<svg version="1.0" xmlns="http://www.w3.org/2000/svg"
 width="1024.000000pt" height="1024.000000pt" viewBox="0 0 1024.000000 1024.000000"
 preserveAspectRatio="xMidYMid meet">
<metadata>
Created by potrace 1.11, written by Peter Selinger 2001-2013
</metadata>
<g transform="translate(0.000000,1024.000000) scale(0.100000,-0.100000)"
fill="#000000" stroke="none">
<path d="M4770 10109 c-861 -58 -1701 -345 -2428 -831 -546 -365 -1015 -834
-1380 -1380 -379 -567 -635 -1196 -757 -1853 -240 -1298 29 -2613 757 -3703
372 -557 846 -1028 1408 -1398 1002 -660 2182 -934 3380 -784 969 121 1856
513 2620 1159 160 135 416 391 551 551 713 844 1117 1839 1188 2925 6 88 11
197 11 242 l0 83 -483 0 -484 0 -6 -167 c-45 -1233 -680 -2395 -1707 -3123
-450 -319 -1033 -567 -1560 -664 -76 -14 -88 -19 -110 -48 -55 -72 -169 -182
-230 -223 -132 -87 -258 -125 -420 -125 -162 0 -288 38 -420 125 -61 41 -174
150 -230 222 -23 30 -35 34 -130 53 -1216 240 -2264 1041 -2823 2156 -154 307
-281 678 -347 1014 -19 95 -23 107 -53 130 -72 56 -181 169 -222 230 -87 132
-125 258 -125 420 0 162 38 288 125 420 41 61 151 175 223 230 29 22 34 34 48
110 40 219 119 488 211 720 373 941 1091 1714 1998 2151 409 197 809 313 1290
376 198 25 699 25 905 0 558 -69 1099 -250 1567 -525 l82 -48 -359 -359 -359
-359 -118 56 c-265 127 -503 202 -802 255 -198 35 -581 44 -801 19 -1188 -136
-2177 -933 -2562 -2066 -39 -115 -98 -339 -98 -372 0 -10 27 -51 61 -91 182
-217 239 -473 162 -736 -31 -110 -81 -201 -160 -296 -35 -41 -63 -84 -63 -95
0 -10 15 -79 34 -152 139 -538 409 -1010 801 -1403 393 -392 865 -662 1403
-801 73 -19 142 -34 153 -34 10 0 52 27 92 61 217 182 473 239 736 163 113
-33 199 -80 293 -159 43 -36 86 -65 96 -65 33 0 257 59 372 98 1129 384 1929
1373 2064 2552 9 74 16 183 16 243 l0 107 -480 0 c-397 0 -480 -2 -480 -14 0
-7 -5 -71 -10 -142 -76 -941 -758 -1713 -1680 -1898 -734 -148 -1504 116
-1991 681 -686 797 -686 1949 0 2746 356 414 872 672 1431 717 235 19 458 -7
718 -82 39 -11 72 -24 72 -27 0 -3 -155 -161 -344 -350 l-343 -343 -88 -9
c-238 -24 -449 -108 -647 -256 -167 -126 -281 -267 -379 -468 -98 -202 -137
-395 -126 -624 10 -187 43 -319 122 -488 176 -375 533 -647 942 -718 110 -19
336 -19 446 0 582 101 1025 594 1064 1183 l6 92 -624 0 -624 0 2046 2047
c1670 1671 2051 2057 2070 2098 17 37 25 72 27 132 6 130 -15 166 -207 356
-187 187 -214 202 -341 201 -137 0 -144 -6 -516 -376 l-321 -319 -99 64 c-887
580 -1971 858 -3054 786z"/>
</g>
</svg>
